<mxfile host="drawio-plugin" modified="2025-10-10T04:22:00.266Z" agent="Mozilla/5.0 (Windows NT 10.0; Win64; x64) AppleWebKit/537.36 (KHTML, like Gecko) Chrome/122.0.0.0 Safari/537.36" etag="eAeU_dbMIhyWNxPJHwiP" version="22.1.22" type="embed">
  <diagram id="23iRSUPoRavnBvh4doch" name="Page-1">
    <mxGraphModel dx="1203" dy="1280" grid="0" gridSize="10" guides="1" tooltips="1" connect="1" arrows="1" fold="1" page="0" pageScale="1" pageWidth="827" pageHeight="1169" background="none" math="0" shadow="0">
      <root>
        <mxCell id="0" />
        <mxCell id="1" parent="0" />
        <mxCell id="2" value="&lt;font style=&quot;font-size: 29px;&quot;&gt;Report Analyst&lt;/font&gt;" style="shape=umlActor;verticalLabelPosition=bottom;verticalAlign=top;html=1;outlineConnect=0;" parent="1" vertex="1">
          <mxGeometry x="-182" y="-296" width="100" height="190" as="geometry" />
        </mxCell>
        <mxCell id="52" value="&lt;font style=&quot;font-size: 29px;&quot;&gt;World Population DB&lt;/font&gt;" style="shape=datastore;whiteSpace=wrap;html=1;fillColor=#519e47;" parent="1" vertex="1">
          <mxGeometry x="956" y="-416" width="450" height="514" as="geometry" />
        </mxCell>
        <mxCell id="100" value="&lt;font style=&quot;font-size: 25px;&quot;&gt;World Population System&lt;/font&gt;" style="shape=umlFrame;whiteSpace=wrap;html=1;pointerEvents=0;recursiveResize=0;container=1;collapsible=0;width=273;height=61;" parent="1" vertex="1">
          <mxGeometry x="37" y="-410" width="843" height="528" as="geometry" />
        </mxCell>
        <mxCell id="4" value="&lt;font style=&quot;font-size: 16px;&quot;&gt;&lt;br&gt;Generate &lt;br&gt;Country Reports&lt;br&gt;&lt;/font&gt;" style="ellipse;whiteSpace=wrap;html=1;fillColor=#dae8fc;strokeColor=#6c8ebf;gradientColor=#7ea6e0;" parent="100" vertex="1">
          <mxGeometry x="80" y="209" width="170" height="86" as="geometry" />
        </mxCell>
        <mxCell id="10" value="&lt;font style=&quot;font-size: 14px;&quot;&gt;&lt;br&gt;Retrieve All Countries &lt;br&gt;in the world&lt;/font&gt;" style="ellipse;whiteSpace=wrap;html=1;" parent="100" vertex="1">
          <mxGeometry x="436" y="63" width="200" height="50" as="geometry" />
        </mxCell>
        <mxCell id="11" value="&lt;font style=&quot;font-size: 14px;&quot;&gt;Retrieve Countries &lt;br&gt;by Continent&lt;/font&gt;" style="ellipse;whiteSpace=wrap;html=1;" parent="100" vertex="1">
          <mxGeometry x="436" y="133" width="200" height="50" as="geometry" />
        </mxCell>
        <mxCell id="12" value="&lt;font style=&quot;font-size: 14px;&quot;&gt;Retrieve Countries &lt;br&gt;by Region&lt;/font&gt;" style="ellipse;whiteSpace=wrap;html=1;" parent="100" vertex="1">
          <mxGeometry x="436" y="203" width="200" height="50" as="geometry" />
        </mxCell>
        <mxCell id="13" value="&lt;span data-end=&quot;499&quot; data-start=&quot;466&quot;&gt;&lt;font style=&quot;font-size: 14px;&quot;&gt;List Top N Countries &lt;br&gt;in the World&lt;/font&gt;&lt;/span&gt;" style="ellipse;whiteSpace=wrap;html=1;" parent="100" vertex="1">
          <mxGeometry x="436" y="273" width="200" height="50" as="geometry" />
        </mxCell>
        <mxCell id="14" value="&lt;span data-end=&quot;499&quot; data-start=&quot;466&quot;&gt;&lt;font style=&quot;font-size: 14px;&quot;&gt;List Top N Countries &lt;br&gt;in Continent&lt;/font&gt;&lt;/span&gt;" style="ellipse;whiteSpace=wrap;html=1;" parent="100" vertex="1">
          <mxGeometry x="436" y="343" width="200" height="50" as="geometry" />
        </mxCell>
        <mxCell id="15" value="&lt;span data-end=&quot;499&quot; data-start=&quot;466&quot;&gt;&lt;font style=&quot;font-size: 14px;&quot;&gt;List Top N Countries i&lt;br&gt;n Region&lt;/font&gt;&lt;/span&gt;" style="ellipse;whiteSpace=wrap;html=1;" parent="100" vertex="1">
          <mxGeometry x="436" y="409" width="200" height="50" as="geometry" />
        </mxCell>
        <mxCell id="61" value="&lt;font style=&quot;font-size: 13px;&quot;&gt;&amp;lt;&amp;lt;include&amp;gt;&amp;gt;&lt;/font&gt;" style="html=1;verticalAlign=bottom;labelBackgroundColor=none;endArrow=open;endFill=0;dashed=1;rounded=0;entryX=0;entryY=0.5;entryDx=0;entryDy=0;exitX=1.008;exitY=0.449;exitDx=0;exitDy=0;exitPerimeter=0;" parent="100" source="4" target="10" edge="1">
          <mxGeometry width="160" relative="1" as="geometry">
            <mxPoint x="316" y="199" as="sourcePoint" />
            <mxPoint x="596" y="319" as="targetPoint" />
          </mxGeometry>
        </mxCell>
        <mxCell id="62" value="&lt;font style=&quot;font-size: 13px;&quot;&gt;&amp;lt;&amp;lt;include&amp;gt;&amp;gt;&lt;/font&gt;" style="html=1;verticalAlign=bottom;labelBackgroundColor=none;endArrow=open;endFill=0;dashed=1;rounded=0;exitX=1;exitY=0.5;exitDx=0;exitDy=0;entryX=0;entryY=0.5;entryDx=0;entryDy=0;" parent="100" source="4" target="11" edge="1">
          <mxGeometry width="160" relative="1" as="geometry">
            <mxPoint x="436" y="319" as="sourcePoint" />
            <mxPoint x="596" y="319" as="targetPoint" />
          </mxGeometry>
        </mxCell>
        <mxCell id="63" value="&lt;font style=&quot;font-size: 13px;&quot;&gt;&amp;lt;&amp;lt;include&amp;gt;&amp;gt;&lt;/font&gt;" style="html=1;verticalAlign=bottom;labelBackgroundColor=none;endArrow=open;endFill=0;dashed=1;rounded=0;exitX=1;exitY=0.5;exitDx=0;exitDy=0;entryX=0;entryY=0.5;entryDx=0;entryDy=0;" parent="100" source="4" target="12" edge="1">
          <mxGeometry width="160" relative="1" as="geometry">
            <mxPoint x="436" y="319" as="sourcePoint" />
            <mxPoint x="596" y="319" as="targetPoint" />
          </mxGeometry>
        </mxCell>
        <mxCell id="64" value="&lt;font style=&quot;font-size: 13px;&quot;&gt;&amp;lt;&amp;lt;include&amp;gt;&amp;gt;&lt;/font&gt;" style="html=1;verticalAlign=bottom;labelBackgroundColor=none;endArrow=open;endFill=0;dashed=1;rounded=0;exitX=1;exitY=0.5;exitDx=0;exitDy=0;entryX=0;entryY=0.5;entryDx=0;entryDy=0;" parent="100" source="4" target="13" edge="1">
          <mxGeometry width="160" relative="1" as="geometry">
            <mxPoint x="286" y="269" as="sourcePoint" />
            <mxPoint x="446" y="269" as="targetPoint" />
          </mxGeometry>
        </mxCell>
        <mxCell id="65" value="&lt;font style=&quot;font-size: 13px;&quot;&gt;&amp;lt;&amp;lt;include&amp;gt;&amp;gt;&lt;/font&gt;" style="html=1;verticalAlign=bottom;labelBackgroundColor=none;endArrow=open;endFill=0;dashed=1;rounded=0;exitX=1;exitY=0.5;exitDx=0;exitDy=0;entryX=0;entryY=0.5;entryDx=0;entryDy=0;" parent="100" source="4" target="14" edge="1">
          <mxGeometry width="160" relative="1" as="geometry">
            <mxPoint x="286" y="269" as="sourcePoint" />
            <mxPoint x="446" y="269" as="targetPoint" />
          </mxGeometry>
        </mxCell>
        <mxCell id="66" value="&lt;font style=&quot;font-size: 13px;&quot;&gt;&amp;lt;&amp;lt;include&amp;gt;&amp;gt;&lt;/font&gt;" style="html=1;verticalAlign=bottom;labelBackgroundColor=none;endArrow=open;endFill=0;dashed=1;rounded=0;exitX=1;exitY=0.5;exitDx=0;exitDy=0;entryX=0;entryY=0.5;entryDx=0;entryDy=0;" parent="100" source="4" target="15" edge="1">
          <mxGeometry width="160" relative="1" as="geometry">
            <mxPoint x="286" y="269" as="sourcePoint" />
            <mxPoint x="446" y="269" as="targetPoint" />
          </mxGeometry>
        </mxCell>
        <mxCell id="109" value="" style="endArrow=none;html=1;rounded=0;exitX=1;exitY=0.5;exitDx=0;exitDy=0;entryX=0;entryY=0.5;entryDx=0;entryDy=0;" parent="1" source="10" target="52" edge="1">
          <mxGeometry width="50" height="50" relative="1" as="geometry">
            <mxPoint x="670.0000000000025" y="-270.2" as="sourcePoint" />
            <mxPoint x="1275" y="494.99999999999983" as="targetPoint" />
          </mxGeometry>
        </mxCell>
        <mxCell id="110" value="" style="endArrow=none;html=1;rounded=0;exitX=1;exitY=0.5;exitDx=0;exitDy=0;entryX=0;entryY=0.5;entryDx=0;entryDy=0;" parent="1" source="11" target="52" edge="1">
          <mxGeometry width="50" height="50" relative="1" as="geometry">
            <mxPoint x="1160" y="440" as="sourcePoint" />
            <mxPoint x="1320" y="490" as="targetPoint" />
          </mxGeometry>
        </mxCell>
        <mxCell id="111" value="" style="endArrow=none;html=1;rounded=0;exitX=1;exitY=0.5;exitDx=0;exitDy=0;entryX=0;entryY=0.5;entryDx=0;entryDy=0;" parent="1" source="12" target="52" edge="1">
          <mxGeometry width="50" height="50" relative="1" as="geometry">
            <mxPoint x="1060" y="430" as="sourcePoint" />
            <mxPoint x="1320" y="490" as="targetPoint" />
          </mxGeometry>
        </mxCell>
        <mxCell id="112" value="" style="endArrow=none;html=1;rounded=0;exitX=1;exitY=0.5;exitDx=0;exitDy=0;entryX=0;entryY=0.5;entryDx=0;entryDy=0;" parent="1" source="13" target="52" edge="1">
          <mxGeometry width="50" height="50" relative="1" as="geometry">
            <mxPoint x="1080" y="410" as="sourcePoint" />
            <mxPoint x="1130" y="360" as="targetPoint" />
          </mxGeometry>
        </mxCell>
        <mxCell id="114" value="" style="endArrow=none;html=1;rounded=0;exitX=1;exitY=0.5;exitDx=0;exitDy=0;entryX=0;entryY=0.5;entryDx=0;entryDy=0;" parent="1" source="15" target="52" edge="1">
          <mxGeometry width="50" height="50" relative="1" as="geometry">
            <mxPoint x="700" y="230" as="sourcePoint" />
            <mxPoint x="1310" y="490" as="targetPoint" />
          </mxGeometry>
        </mxCell>
        <mxCell id="144" value="" style="endArrow=none;html=1;rounded=0;entryX=1;entryY=0.5;entryDx=0;entryDy=0;exitX=0;exitY=0.5;exitDx=0;exitDy=0;" parent="1" source="52" target="14" edge="1">
          <mxGeometry width="50" height="50" relative="1" as="geometry">
            <mxPoint x="1320" y="490" as="sourcePoint" />
            <mxPoint x="970" y="370" as="targetPoint" />
          </mxGeometry>
        </mxCell>
        <mxCell id="101" value="" style="endArrow=none;html=1;rounded=0;entryX=0;entryY=0.5;entryDx=0;entryDy=0;exitX=1;exitY=0.3333333333333333;exitDx=0;exitDy=0;exitPerimeter=0;" parent="1" edge="1" target="4" source="2">
          <mxGeometry width="50" height="50" relative="1" as="geometry">
            <mxPoint x="-457" y="794.3333333333335" as="sourcePoint" />
            <mxPoint x="208.0000000000091" y="-167" as="targetPoint" />
            <Array as="points" />
          </mxGeometry>
        </mxCell>
      </root>
    </mxGraphModel>
  </diagram>
</mxfile>
